<svg xmlns="http://www.w3.org/2000/svg" width="171" height="48" viewBox="0 0 171 48" fill="none"><path d="M67.6195 40.7752V35.063H65.856V33.9663H70.6085V35.063H68.872V40.7752H67.6195Z" fill="#4451A3"></path><path d="M71.2568 40.7753V33.8584H72.4637V36.783L72.2996 36.6086C72.4159 36.3094 72.6049 36.083 72.8708 35.9272C73.1367 35.7715 73.4441 35.6946 73.7993 35.6946C74.1649 35.6946 74.4889 35.7735 74.7735 35.9314C75.056 36.0893 75.2782 36.3115 75.4361 36.594C75.5939 36.8765 75.6729 37.2047 75.6729 37.5765V40.7753H74.4764V37.859C74.4764 37.6388 74.4328 37.4519 74.3476 37.2919C74.2625 37.132 74.1441 37.0115 73.9966 36.9264C73.847 36.8412 73.6726 36.7976 73.4711 36.7976C73.2758 36.7976 73.1014 36.8412 72.9497 36.9264C72.7981 37.0115 72.6776 37.1341 72.5924 37.2919C72.5073 37.4498 72.4637 37.6388 72.4637 37.859V40.7753H71.2568Z" fill="#4451A3"></path><path d="M79.0434 40.8856C78.5325 40.8856 78.0817 40.7693 77.6954 40.5388C77.309 40.3061 77.0078 39.9925 76.796 39.5978C76.582 39.2011 76.4761 38.7628 76.4761 38.2809C76.4761 37.7803 76.5862 37.3379 76.8043 36.9515C77.0244 36.5652 77.3194 36.2577 77.6912 36.0334C78.063 35.8091 78.4826 35.6948 78.952 35.6948C79.3426 35.6948 79.6853 35.7592 79.9802 35.8859C80.2752 36.0126 80.5265 36.1913 80.7342 36.4156C80.942 36.642 81.0998 36.8996 81.2099 37.1883C81.32 37.477 81.374 37.7907 81.374 38.1251C81.374 38.2165 81.3699 38.3058 81.3595 38.3951C81.3512 38.4844 81.3325 38.5634 81.3096 38.6382H77.471V37.7159H80.6325L80.0571 38.1459C80.1173 37.8655 80.1069 37.6162 80.0259 37.396C79.9428 37.1758 79.8099 37.0034 79.623 36.8747C79.436 36.7459 79.2138 36.6836 78.952 36.6836C78.7028 36.6836 78.4805 36.7479 78.2853 36.8747C78.09 37.0014 77.9426 37.1862 77.8428 37.423C77.7431 37.6598 77.7037 37.9506 77.7286 38.2913C77.7037 38.5966 77.7452 38.8646 77.8512 39.0993C77.9571 39.334 78.117 39.5147 78.3268 39.6435C78.5366 39.7723 78.7796 39.8346 79.0538 39.8346C79.328 39.8346 79.5607 39.7764 79.7538 39.6601C79.9449 39.5438 80.0966 39.3901 80.2067 39.1948L81.1746 39.6705C81.077 39.9073 80.9253 40.1192 80.7176 40.302C80.5099 40.4848 80.2627 40.6281 79.9782 40.7319C79.6894 40.8337 79.3779 40.8856 79.0434 40.8856Z" fill="#4451A3"></path><path d="M83.4497 40.7752L85.799 33.9663H87.4067L89.756 40.7752H88.4037L87.9197 39.3212H85.288L84.7936 40.7752H83.4497ZM85.6432 38.2162H87.5542L86.4304 34.8346H86.7773L85.6432 38.2162Z" fill="#4451A3"></path><path d="M90.4038 40.7754V35.8027H91.5379V36.9077L91.4465 36.7436C91.5629 36.3718 91.7436 36.1122 91.9908 35.9668C92.2379 35.8214 92.535 35.7466 92.8819 35.7466H93.1747V36.8163H92.7448C92.4041 36.8163 92.1299 36.9202 91.9222 37.1279C91.7145 37.3356 91.6106 37.6285 91.6106 38.0045V40.7733H90.4038V40.7754Z" fill="#4451A3"></path><path d="M96.097 40.8311C95.5361 40.8311 95.0999 40.6774 94.7904 40.37C94.4789 40.0626 94.3251 39.6285 94.3251 39.0676V36.8742H93.4756V35.8044H93.567C93.81 35.8044 93.997 35.74 94.1299 35.6133C94.2608 35.4845 94.3272 35.2997 94.3272 35.0566V34.6724H95.534V35.8065H96.6765V36.8762H95.534V39.0053C95.534 39.1694 95.5631 39.3107 95.6213 39.4249C95.6794 39.5412 95.7708 39.6285 95.8955 39.6908C96.0201 39.751 96.18 39.7822 96.3753 39.7822C96.4189 39.7822 96.4688 39.7801 96.5269 39.7739C96.5851 39.7676 96.6412 39.7614 96.6952 39.7552V40.7792C96.61 40.7917 96.5124 40.8041 96.4023 40.8166C96.2922 40.8291 96.1884 40.8311 96.097 40.8311Z" fill="#4451A3"></path><path d="M101.654 40.885C101.172 40.885 100.732 40.7729 100.333 40.5465C99.9345 40.3221 99.6167 40.0126 99.3778 39.6242C99.141 39.2337 99.0205 38.7892 99.0205 38.2907C99.0205 37.7921 99.1389 37.3456 99.3778 36.9571C99.6146 36.5666 99.9324 36.2592 100.329 36.0349C100.726 35.8105 101.166 35.6963 101.654 35.6963C102.149 35.6963 102.593 35.8085 102.988 36.0349C103.385 36.2613 103.698 36.5666 103.933 36.953C104.168 37.3393 104.284 37.7859 104.284 38.2927C104.284 38.7933 104.166 39.2378 103.927 39.6263C103.69 40.0168 103.372 40.3242 102.975 40.5485C102.579 40.7729 102.142 40.885 101.654 40.885ZM101.654 39.7883C101.929 39.7883 102.167 39.7239 102.371 39.5972C102.575 39.4684 102.737 39.2918 102.855 39.0634C102.973 38.8349 103.034 38.5773 103.034 38.2907C103.034 38.004 102.973 37.7485 102.855 37.5221C102.737 37.2978 102.575 37.1191 102.371 36.9924C102.167 36.8637 101.929 36.8013 101.654 36.8013C101.386 36.8013 101.15 36.8657 100.942 36.9924C100.734 37.1212 100.572 37.2978 100.454 37.5221C100.335 37.7485 100.275 38.004 100.275 38.2907C100.275 38.5773 100.335 38.8349 100.454 39.0634C100.572 39.2918 100.736 39.4705 100.942 39.5972C101.15 39.7239 101.386 39.7883 101.654 39.7883Z" fill="#4451A3"></path><path d="M105.766 40.7761V36.8731H104.89V35.8034H105.766V35.6476C105.766 35.2633 105.843 34.9393 105.995 34.6734C106.146 34.4075 106.364 34.206 106.649 34.0648C106.934 33.9235 107.266 33.855 107.65 33.855C107.723 33.855 107.804 33.8591 107.893 33.8695C107.983 33.8778 108.057 33.8903 108.118 33.9007V34.933C108.057 34.9206 108.001 34.9143 107.949 34.9102C107.897 34.9081 107.85 34.906 107.808 34.906C107.54 34.906 107.332 34.9663 107.187 35.0847C107.042 35.2031 106.967 35.39 106.967 35.6476V35.8034H108.072V36.8731H106.967V40.7761H105.766Z" fill="#4451A3"></path><path d="M110.619 40.7752V33.9663H111.872V40.7752H110.619Z" fill="#4451A3"></path><path d="M113.07 40.7762V35.8034H114.204V36.7818L114.113 36.6073C114.229 36.3082 114.418 36.0818 114.684 35.926C114.95 35.7702 115.257 35.6934 115.612 35.6934C115.978 35.6934 116.302 35.7723 116.586 35.9302C116.869 36.088 117.091 36.3103 117.249 36.5928C117.407 36.8753 117.486 37.2035 117.486 37.5753V40.7741H116.289V37.8578C116.289 37.6376 116.246 37.4506 116.161 37.2907C116.075 37.1308 115.957 37.0103 115.803 36.9251C115.652 36.8399 115.477 36.7963 115.282 36.7963C115.087 36.7963 114.912 36.8399 114.761 36.9251C114.609 37.0103 114.489 37.1328 114.403 37.2907C114.318 37.4486 114.275 37.6376 114.275 37.8578V40.7741H113.07V40.7762Z" fill="#4451A3"></path><path d="M120.763 40.8311C120.203 40.8311 119.766 40.6774 119.457 40.37C119.145 40.0626 118.992 39.6285 118.992 39.0676V36.8742H118.142V35.8044H118.233C118.477 35.8044 118.663 35.74 118.796 35.6133C118.927 35.4845 118.994 35.2997 118.994 35.0566V34.6724H120.201V35.8065H121.343V36.8762H120.201V39.0053C120.201 39.1694 120.23 39.3107 120.288 39.4249C120.346 39.5412 120.437 39.6285 120.562 39.6908C120.687 39.751 120.847 39.7822 121.042 39.7822C121.085 39.7822 121.135 39.7801 121.193 39.7739C121.252 39.7676 121.308 39.7614 121.362 39.7552V40.7792C121.277 40.7917 121.179 40.8041 121.069 40.8166C120.959 40.8291 120.855 40.8311 120.763 40.8311Z" fill="#4451A3"></path><path d="M124.631 40.8856C124.12 40.8856 123.67 40.7693 123.283 40.5388C122.897 40.3061 122.596 39.9925 122.384 39.5978C122.17 39.2011 122.064 38.7628 122.064 38.2809C122.064 37.7803 122.174 37.3379 122.392 36.9515C122.612 36.5652 122.907 36.2577 123.279 36.0334C123.651 35.8091 124.07 35.6948 124.54 35.6948C124.93 35.6948 125.273 35.7592 125.568 35.8859C125.863 36.0126 126.114 36.1913 126.322 36.4156C126.53 36.642 126.688 36.8996 126.798 37.1883C126.908 37.477 126.962 37.7907 126.962 38.1251C126.962 38.2165 126.958 38.3058 126.947 38.3951C126.939 38.4844 126.92 38.5634 126.898 38.6382H123.059V37.7159H126.22L125.645 38.1459C125.705 37.8655 125.695 37.6162 125.614 37.396C125.531 37.1758 125.398 37.0034 125.211 36.8747C125.024 36.7459 124.802 36.6836 124.54 36.6836C124.291 36.6836 124.068 36.7479 123.873 36.8747C123.678 37.0014 123.53 37.1862 123.431 37.423C123.331 37.6598 123.292 37.9506 123.316 38.2913C123.292 38.5966 123.333 38.8646 123.439 39.0993C123.545 39.334 123.705 39.5147 123.915 39.6435C124.125 39.7723 124.368 39.8346 124.642 39.8346C124.916 39.8346 125.149 39.7764 125.342 39.6601C125.533 39.5438 125.684 39.3901 125.795 39.1948L126.762 39.6705C126.665 39.9073 126.513 40.1192 126.306 40.302C126.098 40.4848 125.851 40.6281 125.566 40.7319C125.275 40.8337 124.966 40.8856 124.631 40.8856Z" fill="#4451A3"></path><path d="M127.857 40.7753V33.8584H129.064V40.7774H127.857V40.7753Z" fill="#4451A3"></path><path d="M130.161 40.7753V33.8584H131.367V40.7774H130.161V40.7753Z" fill="#4451A3"></path><path d="M132.463 35.2458V33.9663H133.67V35.2458H132.463ZM132.463 40.7752V35.8025H133.67V40.7752H132.463Z" fill="#4451A3"></path><path d="M137.188 42.7856C136.816 42.7856 136.471 42.7254 136.156 42.6028C135.838 42.4803 135.566 42.312 135.337 42.096C135.109 41.88 134.942 41.6245 134.839 41.3337L135.954 40.9141C136.027 41.1447 136.172 41.3337 136.388 41.477C136.604 41.6203 136.868 41.691 137.18 41.691C137.423 41.691 137.639 41.6453 137.824 41.5539C138.008 41.4625 138.156 41.3295 138.262 41.1571C138.368 40.9827 138.422 40.7749 138.422 40.5319V39.3978L138.642 39.672C138.472 39.9711 138.245 40.1954 137.961 40.3491C137.678 40.5008 137.35 40.5776 136.978 40.5776C136.521 40.5776 136.11 40.4717 135.744 40.2577C135.379 40.0438 135.09 39.753 134.88 39.3812C134.67 39.0094 134.564 38.5918 134.564 38.1286C134.564 37.6592 134.67 37.2417 134.88 36.8761C135.09 36.5105 135.375 36.2218 135.734 36.012C136.093 35.8022 136.502 35.6963 136.959 35.6963C137.331 35.6963 137.657 35.7731 137.938 35.9289C138.218 36.0847 138.453 36.3091 138.642 36.5999L138.486 36.901V35.8043H139.62V40.5298C139.62 40.9619 139.514 41.3503 139.305 41.691C139.095 42.0316 138.808 42.2996 138.445 42.4948C138.083 42.688 137.664 42.7856 137.188 42.7856ZM137.134 39.4684C137.389 39.4684 137.614 39.4123 137.805 39.3002C137.996 39.188 138.148 39.0301 138.258 38.8286C138.368 38.6272 138.422 38.3966 138.422 38.1349C138.422 37.8794 138.366 37.6509 138.253 37.4494C138.141 37.2479 137.988 37.0901 137.797 36.9737C137.605 36.8574 137.383 36.7993 137.134 36.7993C136.885 36.7993 136.658 36.8574 136.457 36.9737C136.255 37.0901 136.099 37.2479 135.985 37.4494C135.873 37.6509 135.817 37.8794 135.817 38.1349C135.817 38.3904 135.873 38.6189 135.985 38.8203C136.097 39.0218 136.253 39.1797 136.451 39.296C136.65 39.4102 136.878 39.4684 137.134 39.4684Z" fill="#4451A3"></path><path d="M143.083 40.8856C142.572 40.8856 142.121 40.7693 141.735 40.5388C141.349 40.3061 141.047 39.9925 140.836 39.5978C140.622 39.2011 140.516 38.7628 140.516 38.2809C140.516 37.7803 140.626 37.3379 140.844 36.9515C141.064 36.5652 141.359 36.2577 141.731 36.0334C142.103 35.8091 142.522 35.6948 142.992 35.6948C143.382 35.6948 143.725 35.7592 144.02 35.8859C144.315 36.0126 144.566 36.1913 144.774 36.4156C144.982 36.642 145.139 36.8996 145.249 37.1883C145.36 37.477 145.414 37.7907 145.414 38.1251C145.414 38.2165 145.409 38.3058 145.399 38.3951C145.391 38.4844 145.372 38.5634 145.349 38.6382H141.511V37.7159H144.672L144.097 38.1459C144.157 37.8655 144.146 37.6162 144.065 37.396C143.982 37.1758 143.849 37.0034 143.663 36.8747C143.476 36.7459 143.253 36.6836 142.992 36.6836C142.742 36.6836 142.52 36.7479 142.325 36.8747C142.13 37.0014 141.982 37.1862 141.882 37.423C141.783 37.6598 141.743 37.9506 141.768 38.2913C141.743 38.5966 141.785 38.8646 141.891 39.0993C141.997 39.334 142.157 39.5147 142.366 39.6435C142.576 39.7723 142.819 39.8346 143.093 39.8346C143.368 39.8346 143.6 39.7764 143.793 39.6601C143.984 39.5438 144.136 39.3901 144.246 39.1948L145.214 39.6705C145.117 39.9073 144.965 40.1192 144.757 40.302C144.549 40.4848 144.302 40.6281 144.018 40.7319C143.729 40.8337 143.417 40.8856 143.083 40.8856Z" fill="#4451A3"></path><path d="M146.309 40.7762V35.8034H147.443V36.7818L147.351 36.6073C147.468 36.3082 147.657 36.0818 147.923 35.926C148.188 35.7702 148.496 35.6934 148.851 35.6934C149.217 35.6934 149.541 35.7723 149.825 35.9302C150.108 36.088 150.33 36.3103 150.488 36.5928C150.646 36.8753 150.725 37.2035 150.725 37.5753V40.7741H149.528V37.8578C149.528 37.6376 149.485 37.4506 149.399 37.2907C149.314 37.1308 149.196 37.0103 149.042 36.9251C148.891 36.8399 148.716 36.7963 148.521 36.7963C148.326 36.7963 148.151 36.8399 147.999 36.9251C147.848 37.0103 147.727 37.1328 147.642 37.2907C147.557 37.4486 147.513 37.6376 147.513 37.8578V40.7741H146.309V40.7762Z" fill="#4451A3"></path><path d="M154.134 40.8856C153.633 40.8856 153.188 40.7714 152.8 40.5429C152.41 40.3144 152.1 40.0029 151.872 39.6103C151.643 39.2177 151.529 38.7732 151.529 38.2809C151.529 37.7886 151.641 37.3462 151.867 36.9557C152.094 36.5652 152.401 36.2577 152.796 36.0334C153.188 35.8091 153.635 35.6948 154.136 35.6948C154.489 35.6948 154.819 35.7571 155.122 35.8818C155.426 36.0064 155.691 36.1788 155.914 36.399C156.136 36.6192 156.296 36.8746 156.394 37.1675L155.342 37.6328C155.251 37.3773 155.097 37.1738 154.881 37.0242C154.665 36.8746 154.416 36.7999 154.136 36.7999C153.874 36.7999 153.641 36.8622 153.436 36.9868C153.232 37.1114 153.072 37.288 152.956 37.5165C152.839 37.745 152.781 38.0025 152.781 38.2892C152.781 38.5821 152.839 38.8417 152.956 39.0661C153.072 39.2904 153.232 39.469 153.436 39.5957C153.639 39.7224 153.872 39.7868 154.136 39.7868C154.422 39.7868 154.669 39.71 154.881 39.5583C155.093 39.4067 155.245 39.2011 155.342 38.9456L156.394 39.4212C156.296 39.7017 156.138 39.953 155.918 40.1753C155.698 40.3975 155.436 40.572 155.133 40.6966C154.829 40.8212 154.493 40.8856 154.134 40.8856Z" fill="#4451A3"></path><path d="M159.652 40.8856C159.141 40.8856 158.691 40.7693 158.304 40.5388C157.918 40.3061 157.617 39.9925 157.405 39.5978C157.191 39.2011 157.085 38.7628 157.085 38.2809C157.085 37.7803 157.195 37.3379 157.413 36.9515C157.633 36.5652 157.928 36.2577 158.3 36.0334C158.672 35.8091 159.091 35.6948 159.561 35.6948C159.951 35.6948 160.294 35.7592 160.589 35.8859C160.884 36.0126 161.135 36.1913 161.343 36.4156C161.551 36.642 161.709 36.8996 161.819 37.1883C161.929 37.477 161.983 37.7907 161.983 38.1251C161.983 38.2165 161.979 38.3058 161.968 38.3951C161.96 38.4844 161.941 38.5634 161.918 38.6382H158.08V37.7159H161.241L160.666 38.1459C160.726 37.8655 160.716 37.6162 160.635 37.396C160.552 37.1758 160.419 37.0034 160.232 36.8747C160.045 36.7459 159.823 36.6836 159.561 36.6836C159.312 36.6836 159.089 36.7479 158.894 36.8747C158.699 37.0014 158.551 37.1862 158.452 37.423C158.352 37.6598 158.313 37.9506 158.337 38.2913C158.313 38.5966 158.354 38.8646 158.46 39.0993C158.566 39.334 158.726 39.5147 158.936 39.6435C159.145 39.7723 159.389 39.8346 159.663 39.8346C159.937 39.8346 160.17 39.7764 160.363 39.6601C160.554 39.5438 160.705 39.3901 160.816 39.1948L161.783 39.6705C161.686 39.9073 161.534 40.1192 161.327 40.302C161.119 40.4848 160.872 40.6281 160.587 40.7319C160.298 40.8337 159.987 40.8856 159.652 40.8856Z" fill="#4451A3"></path><path d="M31.0696 3.49021C31.0841 3.48398 33.2547 2.76736 33.2672 2.75698C30.9761 2.23976 28.6372 1.93027 26.2942 1.7911C23.974 1.654 21.6455 1.54599 19.3212 1.67062C18.7001 1.70386 18.0811 1.75786 17.4663 1.84303C14.739 2.21899 11.9992 3.26172 10.1588 5.30772C8.08368 7.61129 7.41068 10.9285 7.77626 14.0069C8.14184 17.0852 9.43798 19.9745 10.9065 22.7039C11.7375 24.2472 12.6327 25.776 13.1375 27.4544C13.2849 27.9446 13.395 28.4431 13.555 28.9292C13.5986 29.0642 13.7108 29.5876 13.8437 29.6499C13.8437 29.6499 14.1075 27.7784 14.1075 27.6226C14.1054 26.6277 14.1075 27.3111 14.1054 26.314C14.1013 24.5651 14.095 22.7912 13.6401 21.1024C12.9858 18.6638 11.4321 16.5161 10.9605 14.038C10.6594 12.4615 10.8255 10.7831 11.5235 9.33741C12.3544 7.61337 13.8998 6.29437 15.6467 5.50713C17.3936 4.71989 19.3274 4.43324 21.2425 4.41247C22.6612 4.39793 24.0758 4.52464 25.4945 4.52256C26.4458 4.52048 27.4034 4.53294 28.3443 4.38339C29.2894 4.23383 30.1785 3.84541 31.0696 3.49021Z" fill="#4459A7"></path><path d="M7.16816 13.7437V17.844C7.16816 17.844 4.76697 19.3084 3.59545 23.1739C3.06162 24.9354 3.72839 27.6481 4.88329 29.0565C6.00495 30.4274 7.72692 31.2105 9.33671 31.844V35.1238C9.33671 35.1778 7.5919 34.7146 7.50258 34.6835C4.84798 33.7363 2.01058 31.6467 0.751822 29.0752C-0.0686552 27.3989 -0.0499611 25.2532 0.0455882 23.4336C0.255381 19.3644 3.65777 15.476 7.16816 13.7437Z" fill="#475DAA"></path><path d="M11.9722 12.3374C11.9763 12.4018 14.6289 13.4944 14.8158 13.6024C17.7591 15.3202 19.8384 17.981 21.9716 20.5671C24.0633 23.1054 26.2838 25.6541 28.5749 28.0636C29.547 29.0855 30.5793 30.1802 31.5764 31.2271C32.3387 32.0268 33.128 33.217 34.2351 33.5431V33.8941C34.2351 33.8941 34.7025 37.3485 34.7046 37.3505C34.6921 37.2633 34.3494 37.1615 34.285 37.1345C34.0129 37.0182 33.7345 36.9102 33.4583 36.8022C31.5535 36.0585 30.1078 34.5422 28.7411 33.0778C28.6725 33.003 28.6019 32.9303 28.5313 32.8556C28.5146 32.8389 28.5001 32.8223 28.4835 32.8057C28.3422 32.6562 28.1989 32.5066 28.0556 32.357C26.45 30.6953 24.8568 29.017 23.3384 27.2742C20.6194 24.1481 17.9855 20.7686 14.9674 17.925C14.3754 17.3683 13.7357 16.8885 13.0938 16.3941C12.9671 16.2965 12.2214 15.8499 12.209 15.6567C12.2069 15.6588 11.9722 12.3374 11.9722 12.3374Z" fill="#3F5AA9"></path><path d="M10.3627 22.9404C11.6817 25.0778 13.0941 28.5945 13.0941 29.8532C13.0941 32.4434 13.1378 35.123 13.9375 37.6114C14.2906 38.7081 15.0425 39.4268 15.8381 40.2224C16.4093 40.7936 14.4755 41.2713 14.1369 41.2942C12.8698 41.3752 11.5612 40.4613 11.0336 39.3437C9.88286 36.9072 10.3274 33.9473 10.3232 31.3176C10.3232 28.5238 10.317 25.7321 10.3627 22.9404Z" fill="#455AA8"></path><path d="M15.9443 12.6299C15.9443 12.6299 18.5346 11.6931 21.8725 9.64299C21.8725 9.64299 27.3791 5.60084 28.1996 5.30796C29.02 5.01508 31.3631 3.25781 36.2839 4.89876C36.2839 4.89876 40.326 6.89076 42.4343 11.2839C42.4343 11.2839 44.0753 14.5056 44.1334 16.7323C44.1334 16.7323 40.7352 14.8587 40.0913 13.7454C39.4474 12.632 37.3972 8.53171 34.2919 7.76939C34.2919 7.76939 31.2447 6.7142 28.5506 8.53171C25.8565 10.3471 19.2948 15.1516 18.5927 15.0934C17.8906 15.0353 17.8906 15.0353 17.8906 15.0353L15.9443 12.6299Z" fill="#415CAA"></path><path d="M15.9814 6.52777C16.9202 5.834 18.0855 5.26278 19.2737 5.24824C20.1274 5.23786 20.8606 5.63875 21.5315 6.12688C22.0363 6.49454 22.5099 6.88712 22.9544 7.32333C22.4309 7.74083 21.9075 8.15834 21.382 8.57377C20.6467 9.15538 20.3081 9.226 19.4502 8.81265C18.6588 8.43045 17.8882 8.01086 17.1217 7.58297C16.9182 7.46873 15.4787 6.89751 15.9814 6.52777Z" fill="#405DAA"></path><path d="M14.7266 12.1044C15.1773 11.8323 15.5616 11.0928 15.8898 10.7251C16.4111 10.1435 17.0218 9.48298 17.8008 9.26904C17.7696 9.16518 17.6927 9.12571 17.5951 9.07378C16.8162 8.67082 16.1099 8.0082 15.2542 7.76933C14.2883 7.4993 13.582 8.83907 13.0025 9.52245C12.7325 9.84233 12.2631 10.2578 12.1156 10.6587C11.7708 11.6017 13.9019 12.47 14.6227 12.1563C14.6601 12.1418 14.6933 12.1251 14.7266 12.1044Z" fill="#405DAB"></path><path d="M26.9699 10.4673L23.9829 12.8041C24.9654 13.2549 25.9417 13.7201 26.9138 14.1958C27.6553 14.5593 28.3969 14.929 29.1239 15.3216C29.5912 15.573 30.15 15.8201 30.5405 16.1878C30.8251 16.4558 30.5509 16.732 30.3182 16.9106C30.0108 17.1495 29.7283 17.3905 29.4354 17.648C28.8289 18.1777 28.2078 18.6908 27.5847 19.2018C26.5212 20.0742 25.4494 20.9383 24.3734 21.7961C24.3713 21.7982 24.3339 21.8294 24.3319 21.8294L26.382 24.0561L32.2978 19.6047V13.3961L26.9699 10.4673Z" fill="#3F5CAA"></path><path d="M20.4084 24.8438L22.4004 27.4506C22.4004 27.4506 21.9912 28.1527 21.6983 28.3292C21.4054 28.5058 15.4294 32.8408 15.4294 32.8408C15.4294 32.8408 14.1998 33.1918 16.1918 34.0123C18.1838 34.8328 21.4054 36.9411 21.4054 36.9411L18.4185 39.226L14.3763 36.7646L14.1416 29.5007L20.4084 24.8438Z" fill="#4456A6"></path><path d="M30.029 8.4776C31.8424 8.14525 33.5581 7.72982 34.902 9.37701C36.1587 10.9203 36.2896 12.8563 36.1795 14.7631C35.9842 18.1572 36.0341 21.5513 35.9946 24.9516C35.9946 25.0139 35.9531 25.2299 35.9905 25.2839L35.4047 24.4364L33.4709 20.5376C33.4709 20.5376 33.3545 20.8887 33.4127 17.667C33.4397 16.1777 33.7388 14.6676 33.4231 13.1907C33.2486 12.3744 32.8809 11.556 32.3866 10.885C31.859 10.1663 31.1839 9.64704 30.513 9.0779C30.3863 8.96989 29.9459 8.68739 29.9438 8.49422C29.9459 8.46514 29.9999 8.48175 30.029 8.4776Z" fill="#3654A5"></path><path d="M36.9268 13.7437V13.9576C36.9268 13.9576 36.9268 17.5864 36.9268 17.5885C36.9288 17.5698 38.7193 18.0641 38.8668 18.1098C40.5535 18.6416 41.698 20.0561 42.1799 21.7199C42.7553 23.7036 42.4375 25.8244 41.5277 27.6585C40.8401 29.0419 39.7932 30.2114 38.8398 31.4161C38.8398 31.4161 39.5045 35.6327 39.5045 35.6348C39.4817 35.4998 40.6594 34.6066 40.8173 34.455C41.2846 34.0105 41.7375 33.5494 42.1716 33.0716C43.0336 32.1182 43.8167 31.09 44.4565 29.9746C46.8784 25.7434 46.9968 19.8339 42.8861 16.5914C41.9369 15.8416 40.863 15.2579 39.7558 14.776C38.8357 14.3751 37.8864 14.0428 36.9268 13.7437Z" fill="#4451A3"></path><path d="M32.4763 19.7769C32.4763 19.7769 33.8036 23.6424 34.9751 25.5181C37.7938 30.0899 40.4318 35.7585 38.1781 41.1404C36.3876 45.4173 31.5229 47.0084 27.2689 47.4031C26.6436 47.4612 26.0163 47.5069 25.387 47.536C21.8059 47.7063 18.2831 47.6502 14.8371 46.5473C14.7187 46.5099 14.2451 46.2585 14.1392 46.2959C14.862 46.0342 15.5849 45.7704 16.3077 45.5087C16.8685 45.3051 17.4273 45.1016 17.9881 44.898C18.5137 44.7069 18.9623 44.4639 19.5356 44.4909C20.0923 44.5179 20.6531 44.6093 21.2119 44.6467C22.4416 44.7256 23.6775 44.7422 24.9092 44.6654C27.2938 44.5179 29.6888 44.0235 31.8324 42.9434C33.6478 42.0274 34.8692 40.7541 35.5484 38.8244C35.8434 37.9894 35.9909 37.1003 35.9431 36.2134C35.8642 34.7552 35.2555 33.1808 34.6864 31.8389C34.0196 30.2665 33.114 28.798 32.0422 27.4706L32.4763 19.7769Z" fill="#3F51A3"></path><path d="M1.4458 31.4888C2.50723 32.1452 3.69121 33.4995 4.29982 33.838C4.66955 34.0437 6.55976 37.444 7.97223 38.9707C8.99004 40.0716 10.2322 41.0292 11.6841 41.4051C13.5079 41.8766 15.4625 41.374 17.1325 40.5036C18.8026 39.6333 20.2587 38.414 21.7937 37.3235C23.686 35.9796 25.7112 34.8226 27.8299 33.8775C28.0667 33.7716 28.2599 33.7196 28.4946 33.6033C28.6338 33.5348 28.8747 33.8733 29.1323 34.1226C30.0088 34.9763 30.4866 35.3211 31.2281 35.9858C27.1257 37.1885 23.5904 40.2357 19.9616 42.4977C18.4681 43.4283 16.8895 44.2695 15.1759 44.6683C13.8319 44.9799 12.3904 45.0028 11.0672 44.5832C9.84375 44.1968 8.81763 43.3909 7.85383 42.5642C5.95323 40.9315 4.37667 38.925 3.23216 36.6962C2.38883 35.0573 1.78022 33.298 1.4458 31.4888Z" fill="#4459A7"></path><path d="M31.8511 37.0383C32.4784 37.2792 33.1119 37.5035 33.7372 37.7528C33.9823 37.8504 34.2398 37.9356 34.4787 38.0436C34.6511 38.1204 34.6449 38.2305 34.5722 38.3946C34.0197 39.6202 32.9707 40.5113 31.957 41.3504C31.5749 41.6682 31.1594 41.9777 30.6838 42.1377C29.4375 42.5614 28.617 41.2528 27.7196 40.6463C27.4683 40.478 27.4891 40.2724 27.7051 40.0875C27.9419 39.886 28.2244 39.724 28.4778 39.5454C29.0386 39.1507 29.5953 38.7478 30.1333 38.324C30.4553 38.0706 30.7544 37.7943 31.0597 37.5243C31.2757 37.3353 31.4689 36.8908 31.8511 37.0383Z" fill="#3B5CAA"></path><path d="M25.3614 40.1543C25.5421 40.1958 25.7062 40.2976 25.8641 40.3973C26.8258 41.008 27.746 41.681 28.6184 42.4143C28.6828 42.4683 28.7492 42.5243 28.8136 42.5804C28.878 42.6344 28.984 42.6739 28.8988 42.7404C28.8323 42.7923 28.7305 42.8255 28.6537 42.865C28.5664 42.9107 28.4771 42.9585 28.3899 43.0062C28.0555 43.189 27.7273 43.3801 27.3866 43.5505C26.8549 43.8184 26.2899 44.0386 25.6958 44.0884C25.2098 44.13 24.7009 44.0469 24.2771 43.7997C24.0466 43.6647 23.8409 43.4798 23.6311 43.3157C23.3923 43.1267 23.1513 42.9398 22.9124 42.7508C22.6382 42.5368 22.3661 42.3208 22.0919 42.1068C22.0234 42.0528 21.9486 41.9884 21.9445 41.9012C21.9403 41.7994 22.0317 41.7246 22.1148 41.6686C22.8833 41.141 23.7017 40.6861 24.5534 40.3101C24.7777 40.2104 25.0187 40.1148 25.2638 40.1418C25.2991 40.1418 25.3302 40.1481 25.3614 40.1543Z" fill="#415EAB"></path><path d="M56.6108 12.3374V37.0099" stroke="#3F5CAA" stroke-miterlimit="10"></path><path d="M64.5908 29.123V10.2437H77.0081V12.9045H67.5819V18.328H76.5012V20.9888H67.5819V26.4621H77.0081V29.123H64.5908Z" fill="#FFCD31"></path><path d="M79.7964 29.123V10.2437H85.9801C87.9388 10.2437 89.6421 10.6404 91.0857 11.4339C92.5294 12.2274 93.6489 13.3303 94.4445 14.7407C95.238 16.1511 95.6347 17.7941 95.6347 19.6698C95.6347 21.5289 95.238 23.1719 94.4445 24.5989C93.651 26.0259 92.5314 27.1372 91.0857 27.9307C89.6421 28.7241 87.9388 29.1209 85.9801 29.1209H79.7964V29.123ZM82.7854 26.4621H86.0299C87.3635 26.4621 88.5225 26.1838 89.5009 25.625C90.4813 25.0683 91.2415 24.2811 91.7816 23.2674C92.3216 22.2538 92.5917 21.0553 92.5917 19.6698C92.5917 18.2844 92.3216 17.09 91.7816 16.0846C91.2415 15.0793 90.4813 14.2983 89.5009 13.7395C88.5204 13.1829 87.3635 12.9024 86.0299 12.9024H82.7854V26.4621Z" fill="#FFCD31"></path><path d="M98.5464 29.123V10.2437H101.537V29.123H98.5464Z" fill="#FFCD31"></path><path d="M105.44 29.123V10.2437H117.731V12.9045H108.432V18.5814H116.717V21.2422H108.432V29.123H105.44Z" fill="#FFCD31"></path><path d="M125.003 29.123V20.6336L118.566 10.2437H121.937L127.107 18.6312H125.917L131.035 10.2437H134.431L127.994 20.6087V29.123H125.003Z" fill="#FFCD31"></path><path d="M139.423 29.123L146.061 10.2437H149.761L156.402 29.123H153.182L151.763 24.8918H144.084L142.615 29.123H139.423ZM144.946 22.2289H150.851L147.507 12.3458H148.342L144.946 22.2289Z" fill="#3F5CAA"></path><path d="M158.631 29.123V10.2437H161.622V29.123H158.631Z" fill="#3F5CAA"></path><path d="M165.896 10.1395C168.42 10.1395 170.466 8.09353 170.466 5.56975C170.466 3.04594 168.42 1 165.896 1C163.373 1 161.327 3.04594 161.327 5.56975C161.327 8.09353 163.373 10.1395 165.896 10.1395Z" stroke="#3F5CAA" stroke-width="0.5" stroke-miterlimit="10"></path><path d="M163.568 7.18815V4.40061H162.704V3.78369H165.126V4.40061H164.276V7.18815H163.568Z" fill="#3F5AA9"></path><path d="M165.477 7.18815V3.78369H166.162L167.437 5.4745H167.118L168.355 3.78369H169.041V7.18815H168.333V4.5647L168.615 4.6291L167.304 6.3199H167.213L165.948 4.6291L166.185 4.5647V7.18815H165.477Z" fill="#3F5AA9"></path></svg>